<svg version="1.1" id="Layer_1" xmlns="http://www.w3.org/2000/svg" xmlns:xlink="http://www.w3.org/1999/xlink" x="0px" y="0px"
	 width="100%" viewBox="0 0 464 528" enable-background="new 0 0 464 528" xml:space="preserve">
<path fill="#000000" opacity="1.000000" stroke="none" 
	d="
M79.330399,344.999512 
	C79.336143,350.332458 79.492081,355.171692 79.295616,359.996613 
	C79.156952,363.401825 80.309837,364.741943 83.852448,364.725433 
	C106.684227,364.618896 129.516830,364.645477 152.348938,364.709076 
	C154.972916,364.716400 156.469391,364.029480 156.464111,361.132111 
	C156.431717,343.318939 157.317429,325.502350 155.970932,307.693481 
	C155.629028,303.171417 153.853439,300.503540 149.197281,300.022614 
	C148.654327,299.966583 148.166779,299.374084 146.509460,298.263824 
	C159.248871,298.263824 170.722565,298.263824 182.764832,298.263824 
	C182.016083,299.069855 181.771606,299.561951 181.394623,299.705170 
	C173.367599,302.754822 173.353210,302.747192 173.351837,311.384491 
	C173.345886,348.882843 173.360428,386.381195 173.333923,423.879547 
	C173.329056,430.775299 172.819946,437.883698 183.464218,438.227448 
	C183.136383,438.677338 182.808548,439.127258 182.480698,439.577148 
	C170.808243,439.577148 159.135788,439.577148 147.274323,439.577148 
	C147.895035,437.524536 149.268600,437.842377 150.308517,437.518951 
	C153.433990,436.547028 155.366425,434.716217 155.810928,431.216583 
	C156.231186,427.907745 156.661087,424.633026 156.650879,421.283356 
	C156.603653,405.784210 156.577881,390.284393 156.684616,374.785797 
	C156.709106,371.230835 156.029724,369.217377 151.776154,369.245392 
	C129.111664,369.394531 106.445572,369.350128 83.780312,369.282288 
	C80.618805,369.272827 79.293770,370.376495 79.310188,373.651978 
	C79.402916,392.150665 79.259262,410.650940 79.422562,429.148651 
	C79.481567,435.832733 83.170906,438.333191 89.512146,436.787506 
	C91.238091,436.366791 93.080345,436.423157 94.878593,436.259735 
	C96.280113,435.039703 95.752121,433.525574 95.480522,432.081268 
	C95.128006,430.206757 94.979614,428.370605 96.693092,427.055634 
	C98.544037,425.635193 100.201218,426.850159 101.775574,427.696808 
	C112.503036,433.466034 123.642426,438.271088 135.062256,442.509308 
	C152.850632,449.111115 171.283737,452.445679 190.118881,453.728302 
	C195.395584,454.087646 200.279144,455.173706 204.855576,457.844696 
	C210.720871,461.267883 217.252579,462.724365 223.879501,463.565216 
	C229.542587,464.283783 233.249054,459.680389 231.888000,453.740112 
	C236.023727,451.059998 240.973862,450.971649 245.599503,449.988770 
	C272.527863,444.266907 296.968597,432.905273 319.794800,417.763733 
	C321.933105,416.345276 323.038239,414.668396 323.102051,412.052673 
	C323.199432,408.059723 323.736267,404.076050 323.796600,400.084045 
	C323.849396,396.591125 325.217896,394.823761 328.838409,394.853729 
	C332.564636,394.884613 331.883026,397.655273 332.069244,399.844330 
	C332.263733,402.130371 332.296143,404.430267 332.419891,407.178833 
	C336.814117,406.014221 339.216400,402.857361 341.877502,400.406677 
	C360.166565,383.563904 375.396118,364.294159 386.714935,342.091003 
	C398.770172,318.443146 406.659760,293.542053 408.854828,266.957214 
	C409.141785,263.481812 409.728882,260.040283 409.748505,256.526093 
	C409.764587,253.637177 408.697968,252.088242 405.690857,252.178879 
	C396.060577,252.469147 386.518616,250.144791 376.781281,251.823151 
	C371.313568,252.765594 365.487488,252.751099 359.990723,249.292252 
	C361.866425,247.289917 364.123810,247.889740 366.056152,247.831894 
	C378.711914,247.453140 391.374817,248.166138 404.040314,247.430191 
	C408.515717,247.170151 410.002594,245.702240 409.914856,241.121582 
	C409.076294,197.342545 394.297058,158.478241 368.872009,123.292580 
	C360.242676,111.350479 350.109070,100.790215 339.158539,90.988182 
	C337.343994,89.363968 335.334778,87.957237 332.213837,85.506279 
	C332.213837,92.628181 332.204895,98.376350 332.217072,104.124481 
	C332.224731,107.727882 331.477020,110.954720 328.864288,113.746964 
	C325.617706,117.216614 326.814301,122.231781 324.405914,126.320206 
	C323.944336,119.482452 323.296387,112.650833 323.071289,105.805305 
	C322.824921,98.313255 322.797546,90.803375 323.015289,83.311157 
	C323.125000,79.535019 321.753693,77.242393 318.626801,75.140686 
	C294.927826,59.211666 268.952209,48.939846 241.041245,43.317150 
	C238.117493,42.728157 235.204453,41.983883 232.381119,41.031120 
	C230.164581,40.283131 229.478531,38.919773 230.610107,36.378582 
	C234.153534,28.421179 235.463470,27.333300 244.331573,28.828642 
	C263.479431,32.057362 281.800354,38.089088 299.297058,46.441269 
	C320.932190,56.768932 340.595184,70.051201 357.868042,86.770546 
	C382.175537,110.299126 400.567627,137.690979 412.424500,169.459137 
	C423.781891,199.889023 427.940704,231.429901 426.029083,263.633514 
	C424.254272,293.532501 416.223663,321.957184 402.620880,348.762115 
	C388.307983,376.966339 368.896362,401.089569 344.416473,420.987061 
	C316.009125,444.076752 283.955109,459.856079 247.725693,466.193726 
	C231.369705,469.054871 214.820053,471.009155 198.154053,471.008881 
	C172.006668,471.008453 147.116058,464.627838 122.847450,455.498932 
	C112.555603,451.627502 102.438629,447.289093 93.629921,440.464172 
	C92.548859,439.626587 91.313507,439.491486 89.869545,439.654449 
	C78.256386,440.965302 66.600357,439.997528 54.963226,440.151917 
	C54.524193,440.157745 54.080624,439.821899 53.506767,439.592285 
	C53.691505,439.090698 53.738331,438.394592 54.020386,438.280640 
	C61.602478,435.216797 62.641964,433.716064 62.644829,425.318970 
	C62.657272,388.820587 62.654144,352.322174 62.656395,315.823792 
	C62.656437,315.157166 62.701298,314.486328 62.643761,313.824524 
	C62.085186,307.399841 62.764462,300.202148 53.544632,298.394989 
	C65.329056,298.394989 77.113487,298.394989 88.919304,298.394989 
	C89.017410,300.298065 87.628975,300.107971 86.538559,300.289795 
	C80.867844,301.235229 79.405380,302.882233 79.365593,309.001862 
	C79.288666,320.834045 79.334839,332.667053 79.330399,344.999512 
z"/>
<path fill="#000000" opacity="1.000000" stroke="none" 
	d="
M186.087585,198.028732 
	C190.870178,197.492569 194.521225,194.439468 198.772293,193.761032 
	C199.775925,196.092758 198.536652,196.821732 197.402039,197.494400 
	C181.089691,207.165176 155.586594,210.392395 139.807312,188.905502 
	C127.869987,172.650269 116.590172,155.988831 105.590424,139.117920 
	C103.692368,136.206772 101.747475,134.953156 98.242249,135.669067 
	C93.653900,136.606171 88.948265,136.414886 84.295509,136.076950 
	C80.947746,135.833801 79.375526,136.941269 79.391808,140.519211 
	C79.467613,157.178543 79.324760,173.839142 79.462173,190.497635 
	C79.486221,193.412445 79.894142,196.464966 81.771103,199.024185 
	C83.586945,201.500076 87.176666,200.231522 89.877106,203.065277 
	C77.397720,203.065277 65.757881,203.065277 54.165329,203.065277 
	C53.844196,202.020889 54.442249,201.782501 55.098686,201.645279 
	C60.904938,200.431595 62.698288,196.488770 62.687035,191.009369 
	C62.634354,165.353165 62.680447,139.696747 62.686562,114.040405 
	C62.689617,101.212219 62.700897,88.384003 62.673767,75.555870 
	C62.655773,67.046387 61.154194,64.998489 53.334385,62.638969 
	C53.752850,60.952271 55.181198,61.571152 56.127777,61.553848 
	C71.086777,61.280491 86.048225,60.864758 101.006493,60.948917 
	C108.122574,60.988949 115.319870,61.355675 122.237251,63.467342 
	C142.926407,69.783104 147.559158,88.944153 141.309830,105.949722 
	C137.980881,115.008415 131.689529,121.770218 123.900948,127.269058 
	C122.577637,128.203323 120.852127,128.684128 119.782127,130.888931 
	C125.038666,138.975143 130.300064,147.420944 135.917557,155.622879 
	C143.253586,166.333969 150.537521,177.122314 159.399857,186.666870 
	C166.441391,194.250473 174.657120,199.531845 186.087585,198.028732 
M112.081573,70.379318 
	C109.182648,68.670586 106.087929,67.316223 102.760475,66.971977 
	C96.818176,66.357224 90.822632,66.241150 84.888252,65.571709 
	C81.015999,65.134888 79.313828,66.293159 79.331558,70.338196 
	C79.414818,89.336060 79.405495,108.334671 79.328270,127.332596 
	C79.315063,130.582794 80.578827,131.841583 83.806534,131.637299 
	C90.455887,131.216446 97.159897,131.337585 103.761375,130.557968 
	C113.461998,129.412354 120.967323,124.621712 125.335709,115.574844 
	C132.327209,101.095528 126.295303,79.663216 112.081573,70.379318 
z"/>
<path fill="#000000" opacity="1.000000" stroke="none" 
	d="
M274.819977,347.390961 
	C269.051422,347.394379 263.716583,347.534241 258.393341,347.346008 
	C255.262924,347.235321 253.511780,348.382568 252.378662,351.324066 
	C248.248703,362.045105 243.945450,372.699554 239.688858,383.371613 
	C238.740341,385.749756 238.063126,388.083527 240.739075,390.594635 
	C236.180313,391.537811 232.333099,391.241425 227.925522,390.899506 
	C238.491745,382.134888 239.977509,369.220062 244.723602,358.058136 
	C253.058365,338.456238 260.497467,318.473602 268.327118,298.656555 
	C268.857208,297.314880 269.090942,295.686737 271.261322,295.262573 
	C274.136932,298.044434 274.860870,302.076843 276.312225,305.649170 
	C286.272095,330.164215 296.090515,354.736664 305.983765,379.278839 
	C307.793030,383.767059 309.427124,388.451996 314.797729,390.696716 
	C308.354004,390.696716 301.910248,390.696716 295.022552,390.696716 
	C296.976105,386.379333 294.984772,382.517517 293.414978,378.592957 
	C289.952850,369.937561 286.364441,361.330505 283.054077,352.617645 
	C281.619354,348.841522 279.491608,346.701263 274.819977,347.390961 
M260.372406,344.565155 
	C266.385803,344.565155 272.399231,344.565155 279.144196,344.565155 
	C275.373291,333.840393 271.794556,324.548553 267.139832,314.394165 
	C263.341431,323.833649 260.036865,332.130249 256.658844,340.396790 
	C255.417725,343.433960 257.030212,344.255463 260.372406,344.565155 
z"/>
<path fill="#000000" opacity="1.000000" stroke="none" 
	d="
M274.128235,177.999756 
	C274.127563,183.327499 274.105103,188.155472 274.132843,192.983154 
	C274.156891,197.164734 273.677246,201.647476 279.930023,202.725311 
	C271.953918,204.647949 264.482727,203.520905 256.682007,203.042740 
	C262.390991,201.003204 262.650299,196.449448 262.649689,191.756027 
	C262.646698,168.282471 262.675262,144.808853 262.625702,121.335411 
	C262.616211,116.833015 262.601166,112.192360 257.321411,109.525116 
	C264.551666,109.525116 271.781921,109.525116 279.012177,109.525116 
	C272.615112,112.354401 274.129669,118.021614 274.120636,123.061249 
	C274.088104,141.207382 274.120422,159.353622 274.128235,177.999756 
z"/>
<path fill="#000000" opacity="1.000000" stroke="none" 
	d="
M393.286957,271.098572 
	C393.281158,285.570923 393.299530,299.558563 393.246094,313.545898 
	C393.239014,315.398010 393.933350,318.031921 390.873688,318.110352 
	C387.578400,318.194763 388.035278,315.462311 388.029358,313.378418 
	C387.991608,300.101410 388.010132,286.824188 388.010132,272.066956 
	C382.163086,286.276184 376.873871,299.148071 371.563293,312.011169 
	C370.930054,313.545013 370.385315,315.175812 369.441711,316.508301 
	C367.542969,319.189514 365.202637,319.249146 363.574463,316.384125 
	C361.940918,313.509705 360.807617,310.341858 359.553894,307.262421 
	C354.935394,295.918365 350.357880,284.557587 345.048340,273.383514 
	C345.048340,285.790558 345.054382,298.197571 345.041168,310.604614 
	C345.039398,312.267548 345.000336,313.935089 344.868469,315.591766 
	C344.753357,317.037933 344.164581,318.204498 342.442688,318.149963 
	C340.776520,318.097168 340.168060,316.966492 340.034332,315.510101 
	C339.927948,314.351898 339.889557,313.183685 339.890167,312.019958 
	C339.897888,297.532745 339.861176,283.044983 339.996124,268.558868 
	C340.016663,266.352173 338.763733,263.316833 342.524078,262.456055 
	C346.414948,261.565369 347.352478,264.379242 348.428406,267.019623 
	C353.761810,280.107941 359.064026,293.208954 364.417236,306.289154 
	C364.901703,307.472931 365.060913,308.912018 366.807465,309.852844 
	C371.056091,302.133270 373.679504,293.757385 377.088989,285.737732 
	C379.821716,279.309937 382.407318,272.818390 384.977692,266.323242 
	C385.967407,263.822357 387.126862,261.798828 390.334686,262.271667 
	C394.139587,262.832520 393.034241,265.808350 393.265015,268.117188 
	C393.347473,268.941925 393.285034,269.781128 393.286957,271.098572 
z"/>
<path fill="#000000" opacity="1.000000" stroke="none" 
	d="
M381.712219,222.532532 
	C382.762970,219.942734 383.632019,217.665176 386.811493,219.157639 
	C387.687469,226.627533 380.526215,233.964828 371.280853,235.340408 
	C350.743561,238.396042 340.044006,224.996292 340.346924,205.548889 
	C340.427490,200.376007 341.443756,195.328278 343.766846,190.600830 
	C351.121429,175.634384 373.818970,173.028870 384.232300,186.035492 
	C385.952240,188.183716 387.732300,190.470184 387.241760,193.568604 
	C384.796692,194.923050 383.585083,193.874100 382.261871,191.946915 
	C376.533142,183.603256 368.712585,180.649979 359.943665,183.290314 
	C351.126404,185.945206 345.680908,193.332779 345.308472,203.082199 
	C345.018616,210.668808 345.329987,218.029526 350.564789,224.313461 
	C358.607544,233.968033 374.602081,233.291473 381.712219,222.532532 
z"/>
<path fill="#000000" opacity="1.000000" stroke="none" 
	d="
M328.218719,243.019684 
	C330.827026,244.598129 332.204010,246.876068 334.132416,249.151840 
	C331.306366,251.025406 328.299835,251.843613 325.311859,250.807205 
	C323.633850,250.225189 323.983673,247.928757 324.186127,246.303467 
	C324.448669,244.196335 325.121429,242.319000 328.218719,243.019684 
z"/>
</svg>